# File created by Blade
# Date/Time:  Fri Jan 16 17:25:32 2015
#---------------------------------------------------------
:version 1.10
:name HOM
:units
  mass 1.0
  length 1.000000
  angle deg
:documentation
     Acclaim Skeleton File
:root
   axis xyz
   order TX TY TZ RX RY RZ
   position 0.000000 0.000000 0.000000
   orientation 0 0 0
:bonedata
   begin
      id 1
      name Spine_dum
      direction 0.000000 1.000000 0.000000
      length 7.170412
      axis 0.0 0.0 0.0 xyz
   end
   begin
      id 2
      name LeftUpLeg_dum
      direction 1.000000 0.000000 0.000000
      length 4.318350
      axis 0.0 0.0 0.0 xyz
   end
   begin
      id 3
      name RightUpLeg_dum
      direction -1.000000 0.000000 0.000000
      length 4.318350
      axis 0.0 0.0 0.0 xyz
   end
   begin
      id 4
      name Spine
      direction 0.000000 1.000000 0.000000
      length 0.000000
      axis 0.0 0.0 0.0 xyz
      dof rx ry rz
   end
   begin
      id 5
      name Spine_dum1
      direction 0.000000 1.000000 0.000000
      length 14.276153
      axis 0.0 0.0 0.0 xyz
   end
   begin
      id 6
      name Spine_dum2
      direction 0.000000 1.000000 0.000000
      length 10.718243
      axis 0.0 0.0 0.0 xyz
   end
   begin
      id 7
      name Spine_dum3
      direction 0.000000 1.000000 0.000000
      length 10.718243
      axis 0.0 0.0 0.0 xyz
   end
   begin
      id 8
      name Head
      direction 0.000000 1.000000 0.000000
      length 4.527550
      axis 0.0 0.0 0.0 xyz
      dof rx ry rz
   end
   begin
      id 9
      name LeftShoulder
      direction 1.000000 0.000000 0.000000
      length 7.058872
      axis 0.0 0.0 -90.0 xyz
      dof rx ry rz
   end
   begin
      id 10
      name LeftArm
      direction 1.000000 0.000000 0.000000
      length 10.955525
      axis 0.0 0.0 -90.0 xyz
      dof rx ry rz
   end
   begin
      id 11
      name LeftForeArm
      direction 1.000000 0.000000 0.000000
      length 8.193716
      axis 0.0 0.0 -90.0 xyz
      dof ry rz rx
   end
   begin
      id 12
      name LeftHand
      direction 0.000000 0.000000 0.000000
      length 0.000000
      axis 0.0 0.0 -90.0 xyz
      dof rx ry rz
   end
   begin
      id 13
      name LeftHand_dum1
      direction 0.000000 0.000000 0.000000
      length 0.000000
      axis 0.0 0.0 -90.0 xyz
   end
   begin
      id 14
      name LeftHand_dum2
      direction 1.000000 0.000000 0.000000
      length 3.937000
      axis 0.0 0.0 -90.0 xyz
   end
   begin
      id 15
      name LeftHandThumb1
      direction 0.000000 0.000000 1.000000
      length 3.937000
      axis 0.0 0.0 -90.0 xyz
      dof rx rz ry
   end
   begin
      id 16
      name RightShoulder
      direction -1.000000 0.000000 0.000000
      length 7.058872
      axis 0.0 0.0 90.0 xyz
      dof rx ry rz
   end
   begin
      id 17
      name RightArm
      direction -1.000000 0.000000 0.000000
      length 10.955525
      axis 0.0 0.0 90.0 xyz
      dof rx ry rz
   end
   begin
      id 18
      name RightForeArm
      direction -1.000000 0.000000 0.000000
      length 8.193716
      axis 0.0 0.0 90.0 xyz
      dof ry rz rx
   end
   begin
      id 19
      name RightHand
      direction 0.000000 0.000000 0.000000
      length 0.000000
      axis 0.0 0.0 90.0 xyz
      dof rx ry rz
   end
   begin
      id 20
      name RightHand_dum1
      direction 0.000000 0.000000 0.000000
      length 0.000000
      axis 0.0 0.0 90.0 xyz
   end
   begin
      id 21
      name RightHand_dum2
      direction -1.000000 0.000000 0.000000
      length 3.937000
      axis 0.0 0.0 90.0 xyz
   end
   begin
      id 22
      name RightHandThumb1
      direction 0.000000 0.000000 1.000000
      length 3.937000
      axis 0.0 0.0 90.0 xyz
      dof rx rz ry
   end
   begin
      id 23
      name LeftUpLeg
      direction 0.000000 -1.000000 0.000000
      length 17.323638
      axis 0.0 0.0 0.0 xyz
      dof rx ry rz
   end
   begin
      id 24
      name LeftLeg
      direction 0.000000 -1.000000 0.000000
      length 16.270368
      axis 0.0 0.0 0.0 xyz
      dof rx ry rz
   end
   begin
      id 25
      name LeftFoot
      direction 0.000000 -0.258819 0.965926
      length 4.922846
      axis 15.0 0.0 0.0 xyz
      dof rx ry rz
   end
   begin
      id 26
      name LeftToeBase
      direction 0.000000 0.000000 1.000000
      length 2.952750
      axis 0.0 0.0 0.0 xyz
      dof rx ry rz
   end
   begin
      id 27
      name RightUpLeg
      direction 0.000000 -1.000000 0.000000
      length 17.323638
      axis 0.0 0.0 0.0 xyz
      dof rx ry rz
   end
   begin
      id 28
      name RightLeg
      direction 0.000000 -1.000000 0.000000
      length 16.270368
      axis 0.0 0.0 0.0 xyz
      dof rx ry rz
   end
   begin
      id 29
      name RightFoot
      direction 0.000000 -0.258819 0.965926
      length 4.922846
      axis 15.0 0.0 0.0 xyz
      dof rx ry rz
   end
   begin
      id 30
      name RightToeBase
      direction 0.000000 0.000000 1.000000
      length 2.952750
      axis 0.0 0.0 0.0 xyz
      dof rx ry rz
   end
:hierarchy
   begin
      root Spine_dum LeftUpLeg_dum RightUpLeg_dum
      Spine_dum Spine
      LeftUpLeg_dum LeftUpLeg
      RightUpLeg_dum RightUpLeg
      Spine Spine_dum1 Spine_dum2 Spine_dum3
      Spine_dum1 Head
      Spine_dum2 LeftShoulder
      Spine_dum3 RightShoulder
      LeftShoulder LeftArm
      LeftArm LeftForeArm
      LeftForeArm LeftHand
      LeftHand LeftHand_dum1 LeftHand_dum2
      LeftHand_dum1 LeftHandThumb1
      RightShoulder RightArm
      RightArm RightForeArm
      RightForeArm RightHand
      RightHand RightHand_dum1 RightHand_dum2
      RightHand_dum1 RightHandThumb1
      LeftUpLeg LeftLeg
      LeftLeg LeftFoot
      LeftFoot LeftToeBase
      RightUpLeg RightLeg
      RightLeg RightFoot
      RightFoot RightToeBase
   end

# File created by Blade
# Date/Time:  Fri Jan 16 17:25:22 2015
# Frame Rate: 120.000 fps
#------------------------------------------------------
:FULLY-SPECIFIED
:DEGREES
239
root -5.811439 35.267662 -10.842537 -3.231284 -9.249953 -6.135528
Spine 2.557816 1.293828 10.147852
Head 2.433593 12.048667 -5.283675
LeftShoulder -19.540193 13.405000 -15.342722
LeftArm 25.642472 13.862198 -69.171236
LeftForeArm 6.221762 -0.000000 17.277571
LeftHand 0.054035 -0.000000 -5.147095
LeftHandThumb1 -26.253704 0.000000 33.147579
RightShoulder -1.957991 -1.392550 2.415295
RightArm 11.830863 -37.099275 67.150925
RightForeArm -24.758301 0.000000 27.176810
RightHand 4.890827 -0.000000 12.824440
RightHandThumb1 -24.326973 -0.000000 -32.862282
LeftUpLeg 12.735993 17.941262 8.740359
LeftLeg -8.664782 -0.000000 0.000000
LeftFoot -14.712920 28.090914 -7.969431
LeftToeBase 22.936919 -0.000000 -0.000000
RightUpLeg 7.889605 -4.467436 2.994647
RightLeg -3.515899 -0.000000 0.000000
RightFoot -3.674010 -22.425427 5.565007
RightToeBase 13.728028 -0.000000 -0.000000
240
root -5.806989 35.267778 -10.842645 -3.230146 -9.253529 -6.119655
Spine 2.584253 1.353051 10.158418
Head 2.399155 11.955782 -5.297948
LeftShoulder -19.537433 13.411578 -15.426700
LeftArm 25.577616 14.461284 -69.327960
LeftForeArm 6.247547 -0.000000 17.286536
LeftHand 0.129507 -0.000000 -5.295835
LeftHandThumb1 -26.253704 0.000000 33.147579
RightShoulder -1.929243 -1.368531 2.372208
RightArm 11.936545 -37.470787 66.991680
RightForeArm -24.870153 -0.000000 27.121539
RightHand 5.117756 -0.000000 13.393903
RightHandThumb1 -24.326973 -0.000000 -32.862282
LeftUpLeg 12.723349 17.915259 8.709548
LeftLeg -8.648976 -0.000000 0.000000
LeftFoot -14.725671 28.117641 -7.991389
LeftToeBase 22.911668 -0.000000 -0.000000
RightUpLeg 7.881735 -4.461137 2.972264
RightLeg -3.510740 -0.000000 0.000000
RightFoot -3.676496 -22.427009 5.557633
RightToeBase 13.755028 -0.000000 -0.000000
241
root -5.800396 35.269092 -10.843340 -3.225198 -9.240812 -6.080903
Spine 2.594088 1.389517 10.120125
Head 2.385414 11.889203 -5.243363
LeftShoulder -19.545467 13.448925 -15.514031
LeftArm 25.544327 15.056847 -69.465938
LeftForeArm 6.374106 0.000000 17.279475
LeftHand 0.150975 -0.000000 -5.334644
LeftHandThumb1 -26.253704 0.000000 33.147579
RightShoulder -1.926311 -1.399454 2.382472
RightArm 12.118875 -37.847246 66.732202
RightForeArm -24.918984 -0.000000 27.069378
RightHand 5.153144 -0.000000 13.558850
RightHandThumb1 -24.326973 -0.000000 -32.862282
LeftUpLeg 12.687857 17.954189 8.660089
LeftLeg -8.609851 -0.000000 0.000000
LeftFoot -14.733001 28.064601 -8.012269
LeftToeBase 22.928028 -0.000000 -0.000000
RightUpLeg 7.863733 -4.485858 2.921609
RightLeg -3.500260 -0.000000 0.000000
RightFoot -3.684635 -22.414050 5.519373
RightToeBase 13.763578 -0.000000 -0.000000
242
root -5.794953 35.269293 -10.843749 -3.218978 -9.231958 -6.066395
Spine 2.613854 1.434920 10.129596
Head 2.349518 11.805931 -5.245749
LeftShoulder -19.542189 13.463456 -15.593309
LeftArm 25.479591 15.630593 -69.630046
LeftForeArm 6.593933 -0.000000 17.279859
LeftHand 0.132532 -0.000000 -5.366580
LeftHandThumb1 -26.253704 0.000000 33.147579
RightShoulder -1.901237 -1.362459 2.332344
RightArm 12.157401 -38.089935 66.647689
RightForeArm -25.045200 -0.000000 26.977700
RightHand 5.118604 -0.000000 13.635742
RightHandThumb1 -24.326973 -0.000000 -32.862282
LeftUpLeg 12.663754 17.946380 8.631427
LeftLeg -8.587626 -0.000000 0.000000
LeftFoot -14.741642 28.057192 -8.025585
LeftToeBase 22.884747 -0.000000 -0.000000
RightUpLeg 7.850875 -4.504954 2.898494
RightLeg -3.494680 -0.000000 0.000000
RightFoot -3.687203 -22.403063 5.501078
RightToeBase 13.800009 -0.000000 -0.000000
243
root -5.789527 35.269459 -10.843405 -3.215501 -9.223750 -6.053952
Spine 2.639785 1.484921 10.133639
Head 2.306457 11.726841 -5.237235
LeftShoulder -19.548811 13.487484 -15.676957
LeftArm 25.418160 16.230260 -69.773353
LeftForeArm 7.018905 0.000000 17.300035
LeftHand 0.084347 -0.000000 -5.379115
LeftHandThumb1 -26.253704 0.000000 33.147579
RightShoulder -1.878083 -1.399169 2.295876
RightArm 12.250345 -38.243865 66.528321
RightForeArm -25.131545 -0.000000 26.884336
RightHand 5.027251 -0.000000 13.608027
RightHandThumb1 -24.326973 -0.000000 -32.862282
LeftUpLeg 12.640033 17.908620 8.603179
LeftLeg -8.558304 -0.000000 0.000000
LeftFoot -14.765473 28.081127 -8.036532
LeftToeBase 22.924450 -0.000000 -0.000000
RightUpLeg 7.847026 -4.499999 2.879665
RightLeg -3.497037 -0.000000 0.000000
RightFoot -3.698822 -22.417034 5.536947
RightToeBase 13.803084 -0.000000 -0.000000
244
root -5.784718 35.268609 -10.841156 -3.218834 -9.228012 -6.049928
Spine 2.669825 1.534926 10.157263
Head 2.275599 11.703519 -5.212695
LeftShoulder -19.558917 13.514204 -15.741841
LeftArm 25.343980 16.673390 -70.040207
LeftForeArm 7.509453 -0.000000 17.213748
LeftHand 0.068818 -0.000000 -5.642721
LeftHandThumb1 -26.253704 0.000000 33.147579
RightShoulder -1.847940 -1.410110 2.230709
RightArm 12.265940 -38.299604 66.512687
RightForeArm -25.235251 0.000000 26.758551
RightHand 4.858874 -0.000000 13.464615
RightHandThumb1 -24.326973 -0.000000 -32.862282
LeftUpLeg 12.642368 17.851687 8.583551
LeftLeg -8.549834 -0.000000 0.000000
LeftFoot -14.789164 28.138419 -8.047652
LeftToeBase 22.891758 -0.000000 -0.000000
RightUpLeg 7.856525 -4.494058 2.868238
RightLeg -3.505777 -0.000000 0.000000
RightFoot -3.696621 -22.416504 5.530231
RightToeBase 13.777367 -0.000000 -0.000000
245
root -5.780384 35.268456 -10.840805 -3.222832 -9.198355 -6.034516
Spine 2.707065 1.573171 10.145176
Head 2.226750 11.577897 -5.187015
LeftShoulder -19.557849 13.529645 -15.816233
LeftArm 25.297022 17.246323 -70.186925
LeftForeArm 7.858648 0.000000 17.143076
LeftHand 0.094559 -0.000000 -5.629016
LeftHandThumb1 -26.253704 0.000000 33.147579
RightShoulder -1.859498 -1.404148 2.204035
RightArm 12.262238 -38.305423 66.499191
RightForeArm -25.345001 -0.000000 26.624441
RightHand 4.653674 0.000000 13.162399
RightHandThumb1 -24.326973 -0.000000 -32.862282
LeftUpLeg 12.621280 17.821068 8.556531
LeftLeg -8.522327 -0.000000 0.000000
LeftFoot -14.806307 28.136270 -8.044397
LeftToeBase 22.907412 -0.000000 -0.000000
RightUpLeg 7.862189 -4.530427 2.844211
RightLeg -3.510845 -0.000000 0.000000
RightFoot -3.695248 -22.412993 5.525087
RightToeBase 13.784019 -0.000000 -0.000000
246
root -5.772300 35.268171 -10.842599 -3.205150 -9.150729 -6.010120
Spine 2.714258 1.568296 10.140672
Head 2.194981 11.495670 -5.178146
LeftShoulder -19.570038 13.549286 -15.909888
LeftArm 25.222085 17.811067 -70.325061
LeftForeArm 8.342652 -0.000000 17.117651
LeftHand 0.117295 -0.000000 -5.534246
LeftHandThumb1 -26.253704 0.000000 33.147579
RightShoulder -1.846196 -1.412426 2.157087
RightArm 12.244389 -38.253521 66.501488
RightForeArm -25.405367 0.000000 26.483268
RightHand 4.383125 -0.000000 12.659508
RightHandThumb1 -24.326973 -0.000000 -32.862282
LeftUpLeg 12.571450 17.911604 8.521277
LeftLeg -8.505403 -0.000000 0.000000
LeftFoot -14.782914 28.031760 -7.993219
LeftToeBase 22.927433 -0.000000 -0.000000
RightUpLeg 7.845642 -4.570233 2.805037
RightLeg -3.522609 -0.000000 0.000000
RightFoot -3.700088 -22.406916 5.500291
RightToeBase 13.818488 -0.000000 -0.000000
247
root -5.764341 35.268151 -10.845224 -3.185861 -9.102408 -5.986022
Spine 2.721544 1.583745 10.131270
Head 2.162982 11.389654 -5.160030
LeftShoulder -19.569585 13.581058 -16.017235
LeftArm 25.163519 18.354160 -70.432023
LeftForeArm 8.525613 -0.000000 17.066624
LeftHand 0.263984 -0.000000 -5.873657
LeftHandThumb1 -26.253704 0.000000 33.147579
RightShoulder -1.862644 -1.408686 2.132526
RightArm 12.199310 -38.120685 66.535932
RightForeArm -25.398629 -0.000000 26.292624
RightHand 4.431219 -0.000000 12.460897
RightHandThumb1 -24.326973 -0.000000 -32.862282
LeftUpLeg 12.507365 17.966888 8.482735
LeftLeg -8.463719 -0.000000 0.000000
LeftFoot -14.776361 27.947833 -7.949906
LeftToeBase 22.961230 -0.000000 -0.000000
RightUpLeg 7.824120 -4.618062 2.765507
RightLeg -3.529799 -0.000000 0.000000
RightFoot -3.701221 -22.396931 5.508119
RightToeBase 13.797333 -0.000000 -0.000000
248
root -5.765557 35.268805 -10.830685 -3.304038 -9.123711 -5.980944
Spine 2.875911 1.643708 10.131349
Head 2.134206 11.262232 -5.112882
LeftShoulder -19.561751 13.582944 -16.177105
LeftArm 25.029610 18.619786 -70.570490
LeftForeArm 8.777079 -0.000000 17.048134
LeftHand 0.358786 -0.000000 -6.996579
LeftHandThumb1 -26.253704 0.000000 33.147579
RightShoulder -1.905084 -1.404624 2.117627
RightArm 12.141910 -37.952568 66.590430
RightForeArm -25.364034 0.000000 26.100028
RightHand 4.275875 -0.000000 12.100503
RightHandThumb1 -24.326973 -0.000000 -32.862282
LeftUpLeg 12.640293 17.468206 8.447854
LeftLeg -8.431640 -0.000000 0.000000
LeftFoot -14.905767 28.374729 -8.128229
LeftToeBase 22.896389 -0.000000 -0.000000
RightUpLeg 7.994494 -4.611005 2.751299
RightLeg -3.593515 -0.000000 0.000000
RightFoot -3.679638 -22.405729 5.505772
RightToeBase 13.809762 -0.000000 -0.000000
249
root -5.782185 35.268479 -10.812432 -3.463156 -9.167042 -6.040191
Spine 3.089863 1.741603 10.159883
Head 2.100547 11.132345 -5.005092
LeftShoulder -19.537497 13.586201 -16.280238
LeftArm 24.880996 18.604175 -70.743835
LeftForeArm 9.435022 -0.000000 17.136432
LeftHand 0.240695 -0.000000 -7.829356
LeftHandThumb1 -26.253704 0.000000 33.147579
RightShoulder -1.985437 -1.408387 2.153759
RightArm 12.098285 -37.741696 66.622009
RightForeArm -25.256295 -0.000000 25.930742
RightHand 4.048533 -0.000000 11.617807
RightHandThumb1 -24.326973 -0.000000 -32.862282
LeftUpLeg 12.849775 16.485350 8.444187
LeftLeg -8.423890 -0.000000 0.000000
LeftFoot -15.136858 29.216836 -8.434584
LeftToeBase 22.765176 -0.000000 -0.000000
RightUpLeg 8.237331 -4.560015 2.826549
RightLeg -3.686505 -0.000000 0.000000
RightFoot -3.635675 -22.450501 5.521260
RightToeBase 13.802570 -0.000000 -0.000000
250
root -5.776963 35.269468 -10.815716 -3.452579 -9.076638 -5.999010
Spine 3.107450 1.716608 10.101656
Head 2.057705 11.017731 -4.945980
LeftShoulder -19.589637 13.564714 -16.465916
LeftArm 24.839542 18.565129 -70.749303
LeftForeArm 9.799126 0.000000 17.235496
LeftHand 0.221280 -0.000000 -8.904420
LeftHandThumb1 -26.253704 0.000000 33.147579
RightShoulder -2.045661 -1.412440 2.192649
RightArm 12.085629 -37.567747 66.587415
RightForeArm -24.976959 -0.000000 25.728729
RightHand 3.895820 -0.000000 11.125716
RightHandThumb1 -24.326973 -0.000000 -32.862282
LeftUpLeg 12.767541 16.444846 8.385121
LeftLeg -8.355224 -0.000000 0.000000
LeftFoot -15.147868 29.170658 -8.458372
LeftToeBase 22.760300 -0.000000 -0.000000
RightUpLeg 8.229448 -4.625663 2.777798
RightLeg -3.704622 -0.000000 0.000000
RightFoot -3.633569 -22.471258 5.506508
RightToeBase 13.786903 -0.000000 -0.000000
